<svg xmlns="http://www.w3.org/2000/svg" xmlns:xlink="http://www.w3.org/1999/xlink" preserveAspectRatio="xMidYMid" width="14.063" height="17" viewBox="0 0 14.063 17">
  <defs>
    <style>
      .cls-1 {
        fill: #fff;
        fill-rule: evenodd;
      }
    </style>
  </defs>
  <path d="M13.115,11.563 C12.585,11.563 12.155,11.121 12.155,10.577 L12.155,6.359 C12.155,5.815 12.585,5.374 13.115,5.374 C13.643,5.374 14.073,5.815 14.073,6.359 L14.073,10.577 C14.073,11.121 13.643,11.563 13.115,11.563 ZM10.505,13.645 L9.774,13.645 C9.799,13.732 9.813,13.823 9.813,13.918 L9.813,13.973 L9.813,14.302 L9.813,16.000 C9.813,16.544 9.384,16.986 8.854,16.986 C8.325,16.986 7.896,16.544 7.896,16.000 L7.896,14.302 L7.896,13.973 L7.896,13.918 C7.896,13.823 7.909,13.732 7.934,13.645 L6.153,13.645 C6.178,13.732 6.192,13.823 6.192,13.918 L6.192,13.973 L6.192,14.302 L6.192,16.000 C6.192,16.544 5.762,16.986 5.233,16.986 C4.704,16.986 4.275,16.544 4.275,16.000 L4.275,14.302 L4.275,13.973 L4.275,13.918 C4.275,13.823 4.288,13.732 4.313,13.645 L3.583,13.645 C3.025,13.645 2.570,13.178 2.570,12.604 L2.570,6.862 L2.570,6.194 L2.570,5.374 L2.640,5.374 L11.447,5.374 L11.516,5.374 L11.516,6.194 L11.516,6.862 L11.516,12.604 C11.516,13.178 11.063,13.645 10.505,13.645 ZM4.844,1.427 L4.664,1.149 L4.486,0.876 L4.088,0.261 C4.040,0.185 4.060,0.083 4.133,0.033 C4.207,-0.017 4.305,0.003 4.354,0.079 L4.782,0.738 L4.961,1.015 L5.143,1.296 C5.720,1.066 6.365,0.936 7.043,0.936 C7.723,0.936 8.367,1.066 8.944,1.296 L9.126,1.015 L9.306,0.738 L9.734,0.079 C9.782,0.003 9.881,-0.018 9.954,0.033 C10.028,0.083 10.048,0.185 9.999,0.261 L9.601,0.876 L9.423,1.149 L9.243,1.427 C10.599,2.077 11.516,3.308 11.516,4.717 L2.570,4.717 C2.570,3.308 3.488,2.077 4.844,1.427 ZM8.960,3.402 C9.226,3.402 9.440,3.181 9.440,2.908 C9.440,2.636 9.226,2.416 8.960,2.416 C8.696,2.416 8.481,2.636 8.481,2.908 C8.481,3.181 8.696,3.402 8.960,3.402 ZM5.127,3.402 C5.391,3.402 5.606,3.181 5.606,2.908 C5.606,2.636 5.391,2.416 5.127,2.416 C4.862,2.416 4.647,2.636 4.647,2.908 C4.647,3.181 4.862,3.402 5.127,3.402 ZM0.973,11.563 C0.443,11.563 0.014,11.121 0.014,10.577 L0.014,6.359 C0.014,5.815 0.443,5.374 0.973,5.374 C1.502,5.374 1.932,5.815 1.932,6.359 L1.932,10.577 C1.932,11.121 1.502,11.563 0.973,11.563 Z" class="cls-1"/>
</svg>
