<svg xmlns="http://www.w3.org/2000/svg" xmlns:xlink="http://www.w3.org/1999/xlink" preserveAspectRatio="xMidYMid" width="14.531" height="17" viewBox="0 0 14.531 17">
  <defs>
    <style>
      .cls-1 {
        fill: #fff;
        fill-rule: evenodd;
      }
    </style>
  </defs>
  <path d="M14.540,12.460 C14.143,13.344 13.952,13.739 13.441,14.520 C12.728,15.612 11.721,16.972 10.473,16.983 C9.365,16.994 9.081,16.258 7.576,16.267 C6.073,16.275 5.759,16.995 4.650,16.985 C3.404,16.974 2.450,15.747 1.736,14.655 C-0.260,11.604 -0.470,8.022 0.761,6.118 C1.637,4.765 3.018,3.973 4.316,3.973 C5.637,3.973 6.468,4.701 7.561,4.701 C8.621,4.701 9.267,3.972 10.795,3.972 C11.951,3.972 13.176,4.604 14.047,5.695 C11.189,7.267 11.653,11.364 14.540,12.460 L14.540,12.460 ZM9.636,2.753 C10.191,2.037 10.613,1.027 10.461,-0.006 C9.553,0.057 8.492,0.637 7.873,1.392 C7.309,2.077 6.846,3.094 7.026,4.083 C8.018,4.113 9.043,3.520 9.636,2.753 L9.636,2.753 Z" class="cls-1"/>
</svg>
