<svg xmlns="http://www.w3.org/2000/svg" xmlns:xlink="http://www.w3.org/1999/xlink" preserveAspectRatio="xMidYMid" width="71" height="48" viewBox="0 0 71 48">
  <defs>
    <style>
      .cls-1 {
        fill: #fff;
        fill-rule: evenodd;
      }
    </style>
  </defs>
  <path d="M69.743,21.609 L65.833,23.047 L65.833,42.762 C65.833,45.650 63.500,48.000 60.632,48.000 L58.199,48.000 C55.331,48.000 52.998,45.650 52.998,42.762 L52.998,41.168 L17.992,41.168 L17.992,42.762 C17.992,45.650 15.658,48.000 12.790,48.000 L10.357,48.000 C7.489,48.000 5.156,45.650 5.156,42.762 L5.156,23.047 L1.246,21.609 C0.497,21.332 -0.007,20.607 -0.007,19.803 L-0.007,16.217 C-0.007,15.157 0.849,14.295 1.901,14.295 L6.949,14.295 C8.077,14.295 9.113,13.675 9.653,12.679 L14.684,3.391 C15.818,1.298 17.993,-0.003 20.361,-0.003 L50.628,-0.003 C52.996,-0.003 55.171,1.298 56.305,3.391 L61.336,12.679 C61.876,13.675 62.912,14.295 64.040,14.295 L69.088,14.295 C70.140,14.295 70.997,15.157 70.997,16.217 L70.997,19.803 C70.997,20.607 70.493,21.332 69.743,21.609 ZM69.298,16.217 C69.298,16.100 69.204,16.005 69.088,16.005 L64.040,16.005 C62.290,16.005 60.683,15.044 59.845,13.498 L54.814,4.210 C53.978,2.666 52.374,1.708 50.628,1.708 L20.361,1.708 C18.615,1.708 17.011,2.666 16.175,4.210 L11.144,13.498 C10.306,15.044 8.699,16.005 6.949,16.005 L1.901,16.005 C1.785,16.005 1.691,16.100 1.691,16.217 L1.691,19.803 C1.691,19.892 1.747,19.972 1.829,20.002 L6.854,21.851 L6.854,42.762 C6.854,44.707 8.426,46.289 10.357,46.289 L12.790,46.289 C14.722,46.289 16.293,44.707 16.293,42.762 L16.293,41.168 L12.590,41.168 C12.120,41.168 11.740,40.784 11.740,40.312 C11.740,39.840 12.120,39.457 12.590,39.457 L16.293,39.457 L17.142,39.457 L53.847,39.457 L54.696,39.457 L58.400,39.457 C58.869,39.457 59.249,39.840 59.249,40.312 C59.249,40.784 58.869,41.168 58.400,41.168 L54.696,41.168 L54.696,42.762 C54.696,44.707 56.268,46.289 58.199,46.289 L60.632,46.289 C62.563,46.289 64.135,44.707 64.135,42.762 L64.135,21.851 L69.160,20.002 C69.243,19.972 69.298,19.892 69.298,19.803 L69.298,16.217 ZM60.185,31.125 C60.654,31.125 61.034,31.508 61.034,31.980 C61.034,32.452 60.654,32.835 60.185,32.835 L48.943,32.835 L48.943,30.139 C48.943,27.879 50.618,25.930 52.839,25.603 L60.069,24.601 C60.533,24.540 60.962,24.863 61.026,25.331 C61.090,25.799 60.766,26.231 60.301,26.295 L53.077,27.297 C51.692,27.500 50.642,28.723 50.642,30.139 L50.642,31.125 L60.185,31.125 ZM19.259,6.149 C19.678,5.376 20.481,4.896 21.355,4.896 L49.634,4.896 C50.509,4.896 51.312,5.376 51.730,6.149 L57.115,16.091 L13.874,16.091 L19.259,6.149 ZM22.046,30.139 L22.046,32.835 L10.804,32.835 C10.335,32.835 9.955,32.452 9.955,31.980 C9.955,31.508 10.335,31.125 10.804,31.125 L20.347,31.125 L20.347,30.139 C20.347,28.723 19.297,27.500 17.905,27.296 L10.688,26.295 C10.224,26.231 9.899,25.799 9.963,25.331 C10.027,24.863 10.456,24.540 10.920,24.601 L18.143,25.602 C20.371,25.930 22.046,27.879 22.046,30.139 ZM43.934,32.245 C43.930,32.288 43.907,32.322 43.897,32.362 C43.882,32.417 43.870,32.471 43.846,32.521 C43.820,32.573 43.787,32.616 43.752,32.661 C43.720,32.702 43.692,32.743 43.654,32.777 C43.610,32.817 43.561,32.845 43.511,32.874 C43.467,32.900 43.426,32.926 43.378,32.944 C43.323,32.964 43.265,32.971 43.206,32.979 C43.166,32.985 43.131,33.002 43.091,33.002 L27.898,33.002 C27.898,33.002 27.898,33.002 27.898,33.002 C27.898,33.002 27.898,33.002 27.897,33.002 C27.786,33.002 27.680,32.978 27.581,32.938 C27.546,32.924 27.519,32.899 27.487,32.880 C27.427,32.846 27.368,32.813 27.318,32.766 C27.287,32.736 27.267,32.700 27.240,32.666 C27.202,32.616 27.163,32.568 27.136,32.510 C27.116,32.468 27.108,32.423 27.095,32.377 C27.082,32.333 27.060,32.293 27.055,32.245 L26.252,25.235 L44.738,25.235 L43.934,32.245 ZM28.157,26.946 L28.655,31.292 L42.334,31.292 L42.832,26.946 L28.157,26.946 Z" class="cls-1"/>
</svg>
