<svg xmlns="http://www.w3.org/2000/svg" xmlns:xlink="http://www.w3.org/1999/xlink" preserveAspectRatio="xMidYMid" width="98" height="62.969" viewBox="0 0 98 62.969">
  <defs>
    <style>
      .cls-1 {
        fill: #9027b0;
        fill-rule: evenodd;
      }
    </style>
  </defs>
  <path d="M94.642,62.167 L33.564,62.167 C32.219,62.167 30.218,61.271 30.218,58.804 L30.218,55.422 C30.218,54.932 30.614,54.534 31.101,54.534 C31.589,54.534 31.984,54.932 31.984,55.422 L31.984,58.804 C31.984,60.252 33.198,60.386 33.571,60.392 L94.642,60.392 C95.008,60.386 96.222,60.252 96.222,58.804 L96.222,11.662 L31.984,11.662 L31.984,15.024 C31.984,15.514 31.589,15.912 31.101,15.912 C30.614,15.912 30.218,15.514 30.218,15.024 L30.218,10.774 L30.218,3.348 C30.218,0.881 32.219,-0.015 33.564,-0.015 L94.642,-0.015 C95.987,-0.015 97.988,0.881 97.988,3.348 L97.988,10.774 L97.988,58.804 C97.988,61.271 95.987,62.167 94.642,62.167 ZM96.222,3.348 C96.222,1.900 95.008,1.766 94.635,1.760 L33.564,1.760 C33.198,1.766 31.984,1.900 31.984,3.348 L31.984,9.887 L96.222,9.887 L96.222,3.348 ZM37.018,4.965 L42.904,4.965 C43.392,4.965 43.787,5.363 43.787,5.853 C43.787,6.343 43.392,6.740 42.904,6.740 L37.018,6.740 C36.531,6.740 36.136,6.343 36.136,5.853 C36.136,5.363 36.531,4.965 37.018,4.965 ZM48.790,4.965 L54.676,4.965 C55.164,4.965 55.559,5.363 55.559,5.853 C55.559,6.343 55.164,6.740 54.676,6.740 L48.790,6.740 C48.303,6.740 47.907,6.343 47.907,5.853 C47.907,5.363 48.303,4.965 48.790,4.965 ZM50.380,24.491 C53.040,28.099 54.153,32.380 53.861,36.543 C53.878,36.554 53.897,36.556 53.913,36.568 L55.948,38.144 L64.623,29.706 C64.582,29.505 64.561,29.298 64.561,29.085 C64.561,27.379 65.941,25.991 67.638,25.991 C69.335,25.991 70.714,27.379 70.714,29.085 C70.714,29.397 70.654,29.693 70.568,29.977 L79.213,41.250 L84.812,38.388 L87.444,30.985 C87.608,30.523 88.116,30.283 88.571,30.449 C89.031,30.613 89.270,31.121 89.106,31.583 L87.103,37.216 L90.853,35.299 C91.287,35.076 91.820,35.251 92.041,35.688 C92.261,36.125 92.088,36.659 91.653,36.881 L86.238,39.650 L84.622,44.193 C85.342,44.760 85.815,45.632 85.815,46.621 C85.815,48.327 84.435,49.714 82.738,49.714 C81.041,49.714 79.661,48.327 79.661,46.621 C79.661,46.108 79.797,45.632 80.018,45.206 L78.709,43.499 L70.662,47.613 C70.692,47.786 70.716,47.962 70.716,48.143 C70.716,49.849 69.335,51.236 67.638,51.236 C65.941,51.236 64.561,49.849 64.561,48.143 C64.561,47.807 64.628,47.488 64.727,47.185 L56.079,40.487 L50.779,45.641 C50.726,45.693 50.660,45.723 50.598,45.759 C49.525,47.283 48.208,48.670 46.636,49.842 C43.508,52.176 39.799,53.410 35.914,53.410 C30.521,53.410 25.376,50.946 21.969,46.785 L18.272,49.658 C18.504,50.321 18.548,51.056 18.359,51.814 C18.095,52.866 17.435,53.830 16.501,54.528 L6.532,61.959 C5.664,62.606 4.629,62.962 3.618,62.962 C2.402,62.962 1.324,62.447 0.662,61.551 C-0.592,59.846 -0.001,57.260 1.976,55.785 L11.948,48.353 C12.816,47.706 13.850,47.350 14.862,47.350 C15.789,47.350 16.632,47.651 17.274,48.190 L20.931,45.348 C15.623,37.375 17.413,26.505 25.160,20.728 C28.291,18.395 31.998,17.162 35.884,17.162 C41.575,17.162 46.993,19.902 50.380,24.491 ZM82.738,47.939 C83.461,47.939 84.049,47.347 84.049,46.621 C84.049,45.894 83.461,45.302 82.738,45.302 C82.015,45.302 81.426,45.894 81.426,46.621 C81.426,47.347 82.015,47.939 82.738,47.939 ZM81.263,43.923 C81.703,43.678 82.201,43.527 82.738,43.527 C82.819,43.527 82.896,43.545 82.976,43.551 L83.946,40.821 L80.310,42.680 L81.263,43.923 ZM67.638,27.766 C66.915,27.766 66.326,28.358 66.326,29.085 C66.326,29.812 66.915,30.403 67.638,30.403 C68.361,30.403 68.949,29.812 68.949,29.085 C68.949,28.358 68.361,27.766 67.638,27.766 ZM67.638,49.461 C68.361,49.461 68.950,48.870 68.950,48.143 C68.950,47.416 68.361,46.825 67.638,46.825 C66.915,46.825 66.326,47.416 66.326,48.143 C66.326,48.870 66.915,49.461 67.638,49.461 ZM65.740,45.727 C66.264,45.310 66.918,45.050 67.638,45.050 C68.519,45.050 69.309,45.428 69.871,46.027 L77.612,42.069 L69.519,31.515 C68.997,31.924 68.350,32.178 67.638,32.178 C66.812,32.178 66.065,31.845 65.512,31.312 L57.362,39.239 L65.740,45.727 ZM16.400,49.820 C16.069,49.371 15.524,49.125 14.862,49.125 C14.226,49.125 13.565,49.357 12.999,49.779 L3.028,57.210 C1.831,58.104 1.406,59.577 2.081,60.495 C2.727,61.368 4.325,61.392 5.481,60.532 L15.450,53.102 C16.057,52.649 16.482,52.037 16.646,51.380 C16.795,50.788 16.707,50.235 16.400,49.820 ZM54.665,39.392 L53.600,38.567 C53.447,39.402 53.243,40.228 52.975,41.035 L54.665,39.392 ZM26.211,22.155 C19.010,27.523 17.495,37.782 22.833,45.021 C25.888,49.162 30.777,51.635 35.914,51.635 C39.418,51.635 42.762,50.522 45.584,48.416 C52.786,43.047 54.302,32.789 48.962,25.549 C45.907,21.409 41.018,18.937 35.884,18.937 C32.380,18.937 29.036,20.049 26.211,22.155 ZM46.585,27.472 C50.938,33.373 49.703,41.734 43.832,46.110 C41.532,47.825 38.806,48.733 35.949,48.733 C31.765,48.733 27.781,46.718 25.291,43.343 C20.939,37.443 22.174,29.082 28.042,24.706 C30.345,22.990 33.072,22.083 35.929,22.083 C40.113,22.083 44.096,24.098 46.585,27.472 ZM29.094,26.132 C24.007,29.925 22.938,37.172 26.710,42.285 C28.868,45.211 32.321,46.958 35.949,46.958 C38.424,46.958 40.787,46.171 42.780,44.684 C47.868,40.891 48.940,33.644 45.167,28.529 C42.977,25.561 39.610,23.858 35.929,23.858 C33.453,23.858 31.090,24.645 29.094,26.132 Z" class="cls-1"/>
</svg>
