<svg xmlns="http://www.w3.org/2000/svg" xmlns:xlink="http://www.w3.org/1999/xlink" preserveAspectRatio="xMidYMid" width="81.907" height="58.938" viewBox="0 0 81.907 58.938">
  <defs>
    <style>
      .cls-1 {
        fill: #fff;
        fill-rule: evenodd;
      }
    </style>
  </defs>
  <path d="M81.806,14.224 L72.506,28.652 C72.399,28.820 72.228,28.938 72.033,28.980 C71.980,28.991 71.926,28.997 71.872,28.997 C71.729,28.997 71.588,28.957 71.466,28.879 L66.930,25.991 C66.580,25.768 66.478,25.306 66.701,24.958 L66.868,24.700 L61.918,21.703 L61.918,58.185 C61.918,58.598 61.581,58.933 61.165,58.933 L20.217,58.933 C19.801,58.933 19.464,58.598 19.464,58.185 L19.464,21.340 L14.822,24.358 L15.209,24.958 C15.317,25.124 15.353,25.327 15.310,25.521 C15.268,25.715 15.149,25.884 14.980,25.991 L10.443,28.879 C10.317,28.959 10.176,28.997 10.038,28.997 C9.790,28.997 9.547,28.875 9.403,28.652 L0.103,14.224 C-0.005,14.057 -0.042,13.855 0.002,13.661 C0.044,13.467 0.162,13.297 0.331,13.190 L4.868,10.302 C5.198,10.093 5.628,10.180 5.865,10.484 L17.654,2.941 C17.727,2.895 17.808,2.862 17.892,2.842 L29.770,0.118 C30.013,-0.021 30.031,-0.021 32.363,0.142 C34.594,0.297 37.967,0.532 40.362,0.532 C43.017,0.532 46.862,0.243 48.928,0.087 C50.497,-0.032 50.561,-0.032 50.703,-0.010 C50.742,-0.004 50.773,0.018 50.809,0.030 C50.925,-0.001 51.046,-0.014 51.171,0.017 L63.490,2.842 C63.575,2.862 63.656,2.896 63.730,2.943 L75.829,10.795 L76.001,10.529 C76.225,10.181 76.692,10.081 77.041,10.302 L81.578,13.190 C81.747,13.297 81.865,13.467 81.908,13.661 C81.951,13.855 81.914,14.057 81.806,14.224 ZM5.047,11.966 L1.777,14.046 L10.265,27.215 L13.534,25.134 L5.047,11.966 ZM40.362,2.029 C37.915,2.029 34.510,1.792 32.257,1.635 C32.015,1.618 31.779,1.601 31.555,1.586 C32.820,3.587 35.930,7.539 40.669,7.373 C45.655,7.235 48.573,3.437 49.729,1.526 C49.528,1.542 49.305,1.559 49.042,1.578 C46.956,1.736 43.074,2.029 40.362,2.029 ZM63.021,4.270 L51.416,1.609 C50.481,3.389 47.160,8.690 40.712,8.870 C40.616,8.872 40.521,8.874 40.427,8.874 C34.349,8.875 30.820,3.415 29.832,1.640 L18.359,4.270 L6.769,11.686 L14.091,23.045 L19.464,19.552 L19.464,18.229 C19.464,17.816 19.801,17.481 20.217,17.481 C20.632,17.481 20.970,17.816 20.970,18.229 L20.970,57.437 L60.412,57.437 L60.412,18.229 C60.412,17.816 60.749,17.481 61.165,17.481 C61.581,17.481 61.918,17.816 61.918,18.229 L61.918,19.950 L67.680,23.439 L69.292,20.938 L75.017,12.055 L63.021,4.270 ZM76.863,11.966 L76.690,12.236 C76.689,12.236 76.689,12.237 76.689,12.238 L71.037,21.006 L68.376,25.135 L71.645,27.215 L80.132,14.046 L76.863,11.966 ZM39.333,54.115 L31.117,54.115 C30.701,54.115 30.364,53.780 30.364,53.366 C30.364,52.953 30.701,52.618 31.117,52.618 L39.333,52.618 C39.749,52.618 40.086,52.953 40.086,53.366 C40.086,53.780 39.749,54.115 39.333,54.115 ZM27.480,54.115 L25.864,54.115 C25.448,54.115 25.111,53.780 25.111,53.366 C25.111,52.953 25.448,52.618 25.864,52.618 L27.480,52.618 C27.896,52.618 28.233,52.953 28.233,53.366 C28.233,53.780 27.896,54.115 27.480,54.115 Z" class="cls-1"/>
</svg>
