<svg xmlns="http://www.w3.org/2000/svg" xmlns:xlink="http://www.w3.org/1999/xlink" preserveAspectRatio="xMidYMid" width="110" height="60" viewBox="0 0 110 60">
  <defs>
    <style>
      .cls-1 {
        fill: #fff;
        fill-rule: evenodd;
      }
    </style>
  </defs>
  <path d="M107.140,60.000 L90.608,60.000 C89.032,60.000 87.750,58.718 87.750,57.142 L87.750,53.513 L87.750,45.914 L70.168,45.914 L70.168,58.385 L80.684,58.385 C81.129,58.385 81.491,58.747 81.491,59.193 C81.491,59.638 81.129,60.000 80.684,60.000 L58.037,60.000 C57.844,60.000 57.674,59.922 57.535,59.809 C57.070,59.916 56.554,59.994 55.909,59.999 C55.836,60.000 55.392,60.000 54.644,60.000 C46.745,60.000 4.794,59.977 4.244,59.971 C0.359,59.938 0.023,57.913 -0.002,55.469 L-0.005,54.446 C-0.005,54.232 0.081,54.027 0.232,53.876 C0.383,53.724 0.589,53.639 0.803,53.639 L0.803,53.639 L7.116,53.643 L7.116,27.218 C7.116,25.465 8.545,24.828 9.506,24.827 L38.781,24.827 L38.781,4.339 C38.781,1.951 40.724,0.009 43.114,0.009 L95.607,0.009 C97.996,0.009 99.940,1.951 99.940,4.339 L99.940,24.310 L107.140,24.310 C108.717,24.310 109.999,25.592 109.999,27.168 L109.999,30.199 L109.999,53.513 L109.999,57.142 C109.999,58.718 108.717,60.000 107.140,60.000 ZM87.750,44.300 L87.750,37.609 L53.041,37.609 L53.041,44.300 L87.750,44.300 ZM60.157,55.500 C60.148,56.598 60.056,57.599 59.625,58.385 L68.553,58.385 L68.553,45.914 L53.041,45.914 L53.041,53.666 L59.355,53.670 C59.570,53.670 59.775,53.755 59.927,53.907 C60.078,54.059 60.163,54.264 60.162,54.479 L60.157,55.500 ZM1.612,55.254 L1.613,55.456 C1.635,57.642 1.761,58.336 4.259,58.357 C4.862,58.363 55.053,58.392 55.898,58.385 C58.399,58.365 58.524,57.672 58.542,55.485 L58.543,55.283 L1.612,55.254 ZM9.506,26.441 C9.158,26.451 8.731,26.593 8.731,27.218 L8.731,53.643 L51.427,53.666 L51.427,27.218 C51.427,26.593 51.000,26.451 50.642,26.441 L9.506,26.441 ZM98.325,4.339 C98.325,2.841 97.106,1.623 95.607,1.623 L43.114,1.623 C41.615,1.623 40.396,2.841 40.396,4.339 L40.396,24.827 L50.652,24.827 C51.612,24.827 53.041,25.464 53.041,27.218 L53.041,35.995 L87.750,35.995 L87.750,30.199 L87.750,27.168 C87.750,25.592 89.032,24.310 90.608,24.310 L98.325,24.310 L98.325,4.339 ZM108.384,27.168 C108.384,26.482 107.826,25.924 107.140,25.924 L90.608,25.924 C89.922,25.924 89.365,26.482 89.365,27.168 L89.365,29.392 L108.384,29.392 L108.384,27.168 ZM108.384,31.006 L89.365,31.006 L89.365,52.706 L108.384,52.706 L108.384,31.006 ZM108.384,54.320 L89.365,54.320 L89.365,57.142 C89.365,57.828 89.922,58.385 90.608,58.385 L107.140,58.385 C107.826,58.385 108.384,57.828 108.384,57.142 L108.384,54.320 ZM100.220,57.309 L97.529,57.309 C97.083,57.309 96.722,56.948 96.722,56.503 C96.722,56.057 97.083,55.695 97.529,55.695 L100.220,55.695 C100.666,55.695 101.028,56.057 101.028,56.503 C101.028,56.948 100.666,57.309 100.220,57.309 ZM48.978,52.019 C48.533,52.019 48.171,51.657 48.171,51.211 L48.171,29.958 L12.290,29.958 L12.290,50.731 C12.290,51.177 11.929,51.538 11.483,51.538 C11.037,51.538 10.675,51.177 10.675,50.731 L10.675,29.151 C10.675,28.705 11.037,28.344 11.483,28.344 L48.978,28.344 C49.424,28.344 49.786,28.705 49.786,29.151 L49.786,51.211 C49.786,51.657 49.424,52.019 48.978,52.019 ZM65.898,40.147 L72.822,40.147 C73.268,40.147 73.630,40.509 73.630,40.955 C73.630,41.400 73.268,41.762 72.822,41.762 L65.898,41.762 C65.453,41.762 65.091,41.400 65.091,40.955 C65.091,40.509 65.453,40.147 65.898,40.147 Z" class="cls-1"/>
</svg>
