<svg xmlns="http://www.w3.org/2000/svg" xmlns:xlink="http://www.w3.org/1999/xlink" preserveAspectRatio="xMidYMid" width="101" height="56" viewBox="0 0 101 56">
  <defs>
    <style>
      .cls-1 {
        fill: #fff;
        fill-rule: evenodd;
      }
    </style>
  </defs>
  <path d="M100.120,45.274 L97.594,45.274 L97.594,55.120 C97.594,55.608 97.200,56.004 96.714,56.004 L4.928,56.004 C4.442,56.004 4.048,55.608 4.048,55.120 L4.048,45.274 L0.878,45.274 C0.392,45.274 -0.002,44.878 -0.002,44.391 L-0.002,38.875 C-0.002,38.387 0.392,37.992 0.878,37.992 L100.120,37.992 C100.606,37.992 101.000,38.387 101.000,38.875 L101.000,44.391 C101.000,44.878 100.606,45.274 100.120,45.274 ZM66.660,54.237 L95.834,54.237 L95.834,45.274 L85.128,45.274 L85.128,47.821 C85.128,48.308 84.734,48.704 84.248,48.704 L78.755,48.704 C78.269,48.704 77.875,48.308 77.875,47.821 L77.875,45.274 L66.660,45.274 L66.660,54.237 ZM83.368,46.937 L83.368,45.274 L79.634,45.274 L79.634,46.937 L83.368,46.937 ZM36.233,54.237 L64.901,54.237 L64.901,45.274 L54.448,45.274 L54.448,47.821 C54.448,48.308 54.054,48.704 53.569,48.704 L48.073,48.704 C47.587,48.704 47.194,48.308 47.194,47.821 L47.194,45.274 L36.233,45.274 L36.233,54.237 ZM52.689,46.937 L52.689,45.274 L48.953,45.274 L48.953,46.937 L52.689,46.937 ZM5.807,54.237 L34.473,54.237 L34.473,45.274 L23.766,45.274 L23.766,47.821 C23.766,48.308 23.372,48.704 22.887,48.704 L17.394,48.704 C16.908,48.704 16.514,48.308 16.514,47.821 L16.514,45.274 L5.807,45.274 L5.807,54.237 ZM22.007,46.937 L22.007,45.274 L18.273,45.274 L18.273,46.937 L22.007,46.937 ZM99.241,39.758 L1.757,39.758 L1.757,43.507 L4.928,43.507 L17.394,43.507 L22.887,43.507 L48.073,43.507 L53.569,43.507 L78.755,43.507 L84.248,43.507 L96.714,43.507 L99.241,43.507 L99.241,39.758 ZM73.839,33.962 L27.803,33.962 C27.317,33.962 26.923,33.567 26.923,33.079 L26.923,0.891 C26.923,0.404 27.317,0.008 27.803,0.008 L73.839,0.008 C74.325,0.008 74.719,0.404 74.719,0.891 L74.719,33.079 C74.719,33.567 74.325,33.962 73.839,33.962 ZM72.959,1.775 L28.682,1.775 L28.682,32.196 L72.959,32.196 L72.959,1.775 ZM34.824,4.535 L66.818,4.535 C67.304,4.535 67.698,4.931 67.698,5.419 L67.698,26.043 C67.698,26.531 67.304,26.926 66.818,26.926 L34.824,26.926 C34.338,26.926 33.944,26.531 33.944,26.043 L33.944,5.419 C33.944,4.931 34.338,4.535 34.824,4.535 ZM35.703,25.159 L65.938,25.159 L65.938,6.302 L35.703,6.302 L35.703,25.159 ZM52.400,19.514 C52.229,19.686 52.004,19.773 51.779,19.773 C51.555,19.773 51.328,19.686 51.156,19.514 C50.813,19.169 50.815,18.610 51.159,18.265 L54.943,14.467 C55.287,14.122 55.843,14.122 56.187,14.467 C56.530,14.812 56.528,15.371 56.185,15.716 L52.400,19.514 ZM47.555,18.445 C47.384,18.618 47.157,18.704 46.932,18.704 C46.708,18.704 46.481,18.618 46.309,18.445 C45.968,18.100 45.968,17.541 46.309,17.196 L53.876,9.599 C54.219,9.254 54.778,9.254 55.122,9.599 C55.465,9.944 55.463,10.503 55.122,10.848 L47.555,18.445 ZM46.699,13.788 C46.529,13.961 46.302,14.047 46.078,14.047 C45.853,14.047 45.627,13.961 45.455,13.788 C45.111,13.443 45.114,12.884 45.457,12.539 L49.241,8.740 C49.580,8.394 50.142,8.394 50.485,8.740 C50.829,9.085 50.827,9.644 50.483,9.989 L46.699,13.788 ZM50.821,28.264 C51.523,28.264 52.092,28.836 52.092,29.541 C52.092,30.246 51.523,30.818 50.821,30.818 C50.119,30.818 49.549,30.246 49.549,29.541 C49.549,28.836 50.119,28.264 50.821,28.264 Z" class="cls-1"/>
</svg>
