<svg xmlns="http://www.w3.org/2000/svg" xmlns:xlink="http://www.w3.org/1999/xlink" preserveAspectRatio="xMidYMid" width="16.031" height="17" viewBox="0 0 16.031 17">
  <defs>
    <style>
      .cls-1 {
        fill: #fff;
        fill-rule: evenodd;
      }
    </style>
  </defs>
  <path d="M5.272,16.159 C3.293,16.159 1.864,14.880 1.864,13.343 C1.864,11.837 3.637,10.583 5.616,10.605 C6.077,10.610 6.508,10.686 6.898,10.815 C7.972,11.578 8.743,12.008 8.960,12.878 C9.001,13.055 9.024,13.235 9.024,13.421 C9.024,14.958 8.054,16.159 5.272,16.159 M5.792,7.147 C4.464,7.106 3.201,5.629 2.972,3.848 C2.743,2.067 3.634,0.704 4.962,0.744 C6.290,0.784 7.553,2.213 7.782,3.995 C8.010,5.776 7.120,7.188 5.792,7.147 M8.546,9.785 C8.080,9.448 7.189,8.629 7.189,8.147 C7.189,7.582 7.347,7.305 8.179,6.641 C9.031,5.960 9.635,5.003 9.635,3.892 C9.635,2.567 9.057,1.276 7.973,0.850 L9.608,0.850 L10.761,-0.001 L5.606,-0.001 C3.295,-0.001 1.120,1.787 1.120,3.858 C1.120,5.975 2.695,7.684 5.046,7.684 C5.210,7.684 5.369,7.680 5.524,7.669 C5.372,7.967 5.262,8.303 5.262,8.651 C5.262,9.240 5.572,9.717 5.964,10.107 C5.668,10.107 5.382,10.116 5.071,10.116 C2.208,10.116 0.004,11.977 0.004,13.909 C0.004,15.810 2.420,17.000 5.282,17.000 C8.546,17.000 10.349,15.109 10.349,13.207 C10.349,11.681 9.908,10.768 8.546,9.785 M16.047,7.302 L14.040,7.302 L14.040,5.252 L12.424,5.252 L12.424,7.302 L10.418,7.302 L10.418,8.952 L12.424,8.952 L12.424,11.001 L14.040,11.001 L14.040,8.952 L16.047,8.952 L16.047,7.302 Z" class="cls-1"/>
</svg>
