<svg xmlns="http://www.w3.org/2000/svg" xmlns:xlink="http://www.w3.org/1999/xlink" preserveAspectRatio="xMidYMid" width="102" height="75.031" viewBox="0 0 102 75.031">
  <defs>
    <style>
      .cls-1 {
        fill: #9027b0;
        fill-rule: evenodd;
      }
    </style>
  </defs>
  <path d="M85.114,35.517 L85.114,49.782 C86.267,49.822 87.467,49.855 88.765,49.870 C89.217,49.876 89.581,50.249 89.575,50.704 C89.570,51.158 89.198,51.534 88.745,51.519 C87.457,51.503 86.264,51.471 85.114,51.431 L85.114,65.324 C85.114,65.451 85.080,65.568 85.029,65.676 L95.854,65.681 C96.071,65.681 96.280,65.768 96.434,65.924 C96.588,66.078 96.674,66.289 96.673,66.508 C96.671,67.339 96.666,67.913 96.663,68.173 C96.631,72.023 96.139,74.975 90.256,75.022 C90.165,75.024 89.564,75.024 88.532,75.024 C77.289,75.024 7.503,74.987 6.402,74.977 C0.527,74.928 0.032,71.975 -0.005,68.119 C-0.008,67.861 -0.010,67.286 -0.010,66.455 C-0.010,66.236 0.076,66.027 0.230,65.872 C0.384,65.718 0.593,65.631 0.810,65.631 L0.811,65.631 L11.613,65.637 C11.574,65.540 11.550,65.435 11.550,65.324 L11.550,51.815 C8.222,52.034 5.788,51.968 5.464,51.956 C5.011,51.941 4.656,51.560 4.671,51.105 C4.686,50.650 5.055,50.310 5.517,50.308 C5.597,50.311 8.096,50.378 11.550,50.140 L11.550,17.579 C11.550,15.081 13.576,14.173 14.937,14.172 L66.991,14.172 C68.657,6.101 75.788,0.015 84.309,0.015 C94.062,0.015 101.996,7.987 101.996,17.786 C101.996,27.312 94.492,35.090 85.114,35.517 ZM1.631,67.279 C1.632,67.663 1.634,67.942 1.636,68.101 C1.672,71.868 2.093,73.293 6.416,73.329 C7.515,73.339 77.290,73.375 88.532,73.375 C89.558,73.375 90.155,73.375 90.244,73.374 C94.571,73.340 94.991,71.915 95.022,68.156 C95.024,67.995 95.027,67.715 95.029,67.330 L1.631,67.279 ZM83.558,65.675 C83.507,65.567 83.474,65.451 83.474,65.324 L83.474,51.370 C72.590,50.869 68.306,49.337 66.978,48.707 L58.597,53.888 C58.378,54.024 58.108,54.048 57.870,53.955 C57.631,53.861 57.449,53.660 57.378,53.413 L54.477,43.198 L49.819,48.037 C49.612,48.254 49.304,48.339 49.014,48.260 C48.726,48.180 48.502,47.949 48.433,47.657 L43.601,27.519 L38.597,59.440 C38.537,59.823 38.220,60.113 37.835,60.135 C37.819,60.137 37.802,60.137 37.787,60.137 C37.421,60.137 37.097,59.892 36.997,59.535 C36.970,59.437 34.619,50.954 33.380,43.273 C29.996,49.125 20.227,51.064 13.191,51.689 L13.191,65.324 C13.191,65.435 13.167,65.541 13.128,65.637 L83.558,65.675 ZM66.736,15.820 L14.938,15.820 C14.533,15.826 13.191,15.972 13.191,17.579 L13.191,50.008 C20.992,49.293 32.051,46.977 32.897,39.597 C32.944,39.181 33.295,38.867 33.712,38.867 C33.712,38.867 33.712,38.867 33.713,38.867 C34.130,38.867 34.480,39.182 34.526,39.599 C35.115,44.831 36.589,51.279 37.587,55.288 L42.623,23.171 C42.683,22.782 43.009,22.490 43.399,22.475 C43.791,22.445 44.138,22.723 44.230,23.105 L49.677,45.814 L54.287,41.025 C54.491,40.814 54.793,40.727 55.076,40.798 C55.360,40.870 55.585,41.088 55.665,41.371 L58.659,51.914 L66.517,47.057 C66.793,46.885 67.145,46.895 67.414,47.081 C67.441,47.098 70.719,49.119 83.474,49.716 L83.474,35.516 C74.109,35.073 66.621,27.302 66.621,17.786 C66.621,17.121 66.665,16.466 66.736,15.820 ZM84.309,1.664 C75.460,1.664 68.262,8.896 68.262,17.786 C68.262,26.677 75.460,33.910 84.309,33.910 C93.157,33.910 100.356,26.677 100.356,17.786 C100.356,8.896 93.157,1.664 84.309,1.664 ZM98.354,18.703 L96.166,18.703 C95.713,18.703 95.346,18.334 95.346,17.879 C95.346,17.424 95.713,17.055 96.166,17.055 L98.354,17.055 C98.807,17.055 99.175,17.424 99.175,17.879 C99.175,18.334 98.807,18.703 98.354,18.703 ZM92.305,27.379 C92.084,27.379 91.863,27.290 91.702,27.113 L83.805,18.490 C83.772,18.455 83.759,18.411 83.734,18.372 C83.583,18.223 83.489,18.017 83.489,17.788 L83.474,10.459 C83.473,10.003 83.839,9.634 84.292,9.632 C84.293,9.632 84.293,9.632 84.294,9.632 C84.746,9.632 85.113,10.001 85.114,10.455 L85.128,17.501 L92.908,25.997 C93.215,26.332 93.194,26.853 92.860,27.162 C92.703,27.307 92.504,27.379 92.305,27.379 ZM84.310,6.789 C83.857,6.789 83.490,6.420 83.490,5.965 L83.490,3.767 C83.490,3.312 83.857,2.943 84.310,2.943 C84.763,2.943 85.130,3.312 85.130,3.767 L85.130,5.965 C85.130,6.420 84.763,6.789 84.310,6.789 ZM84.310,28.968 C84.763,28.968 85.130,29.337 85.130,29.792 L85.130,31.991 C85.130,32.446 84.763,32.816 84.310,32.816 C83.857,32.816 83.490,32.446 83.490,31.991 L83.490,29.792 C83.490,29.337 83.857,28.968 84.310,28.968 ZM72.452,18.703 L70.263,18.703 C69.810,18.703 69.443,18.334 69.443,17.879 C69.443,17.424 69.810,17.055 70.263,17.055 L72.452,17.055 C72.904,17.055 73.272,17.424 73.272,17.879 C73.272,18.334 72.904,18.703 72.452,18.703 Z" class="cls-1"/>
</svg>
