<svg xmlns="http://www.w3.org/2000/svg" xmlns:xlink="http://www.w3.org/1999/xlink" preserveAspectRatio="xMidYMid" width="68" height="71" viewBox="0 0 68 71">
  <defs>
    <style>
      .cls-1 {
        fill: #9027b0;
        fill-rule: evenodd;
      }
    </style>
  </defs>
  <path d="M64.372,57.897 L46.638,57.897 C46.184,57.897 45.816,57.521 45.816,57.058 C45.816,56.595 46.184,56.219 46.638,56.219 L64.372,56.219 C65.466,56.219 66.356,55.311 66.356,54.195 L66.356,12.082 L1.645,12.082 L1.645,54.195 C1.645,55.311 2.535,56.219 3.630,56.219 L18.130,56.219 C18.584,56.219 18.953,56.595 18.953,57.058 C18.953,57.521 18.584,57.897 18.130,57.897 L3.630,57.897 C1.628,57.897 -0.000,56.236 -0.000,54.195 L-0.000,3.693 C-0.000,1.651 1.628,-0.009 3.630,-0.009 L64.372,-0.009 C66.373,-0.009 68.000,1.651 68.000,3.693 L68.000,54.195 C68.000,56.236 66.373,57.897 64.372,57.897 ZM66.356,3.693 C66.356,2.576 65.466,1.669 64.372,1.669 L3.630,1.669 C2.535,1.669 1.645,2.576 1.645,3.693 L1.645,10.404 L66.356,10.404 L66.356,3.693 ZM4.906,5.198 L8.989,5.198 C9.443,5.198 9.811,5.573 9.811,6.037 C9.811,6.500 9.443,6.875 8.989,6.875 L4.906,6.875 C4.452,6.875 4.084,6.500 4.084,6.037 C4.084,5.573 4.452,5.198 4.906,5.198 ZM13.073,5.198 L17.156,5.198 C17.610,5.198 17.978,5.573 17.978,6.037 C17.978,6.500 17.610,6.875 17.156,6.875 L13.073,6.875 C12.619,6.875 12.251,6.500 12.251,6.037 C12.251,5.573 12.619,5.198 13.073,5.198 ZM21.240,5.198 L25.324,5.198 C25.778,5.198 26.146,5.573 26.146,6.037 C26.146,6.500 25.778,6.875 25.324,6.875 L21.240,6.875 C20.786,6.875 20.417,6.500 20.417,6.037 C20.417,5.573 20.786,5.198 21.240,5.198 ZM31.014,32.145 C31.014,32.608 30.645,32.984 30.191,32.984 L24.709,32.984 C24.255,32.984 23.887,32.608 23.887,32.145 C23.887,31.682 24.255,31.306 24.709,31.306 L30.191,31.306 C30.645,31.306 31.014,31.682 31.014,32.145 ZM29.090,23.125 L32.966,27.078 C33.287,27.406 33.287,27.937 32.966,28.265 C32.805,28.428 32.595,28.510 32.384,28.510 C32.173,28.510 31.963,28.428 31.803,28.265 L27.927,24.311 C27.605,23.983 27.605,23.452 27.927,23.125 C28.248,22.797 28.768,22.797 29.090,23.125 ZM37.044,25.435 L37.044,19.843 C37.044,19.380 37.413,19.004 37.867,19.004 C38.321,19.004 38.689,19.380 38.689,19.843 L38.689,25.435 C38.689,25.898 38.321,26.273 37.867,26.273 C37.413,26.273 37.044,25.898 37.044,25.435 ZM43.349,28.510 C43.138,28.510 42.928,28.428 42.768,28.265 C42.446,27.937 42.446,27.406 42.768,27.078 L46.644,23.125 C46.965,22.797 47.485,22.797 47.807,23.125 C48.128,23.452 48.128,23.983 47.807,24.311 L43.931,28.265 C43.770,28.428 43.560,28.510 43.349,28.510 ZM51.847,32.145 C51.847,32.608 51.478,32.984 51.024,32.984 L45.542,32.984 C45.088,32.984 44.720,32.608 44.720,32.145 C44.720,31.682 45.088,31.306 45.542,31.306 L51.024,31.306 C51.478,31.306 51.847,31.682 51.847,32.145 ZM22.508,42.550 C22.962,42.527 23.411,42.600 23.807,42.769 C24.260,41.474 25.579,40.328 27.223,40.328 C27.237,40.328 27.251,40.328 27.265,40.328 C28.113,40.339 28.881,40.571 29.488,40.958 C29.629,40.641 29.835,40.345 30.098,40.082 C30.779,39.405 31.798,39.038 32.805,39.020 C33.504,39.029 34.154,39.204 34.700,39.496 L34.775,32.865 C34.796,31.285 36.281,29.915 37.961,29.915 C37.973,29.915 37.983,29.915 37.994,29.915 C39.643,29.935 41.394,31.103 41.375,32.809 L41.408,49.441 L42.635,47.208 C42.988,46.564 43.581,46.094 44.303,45.887 C45.097,45.656 45.978,45.773 46.725,46.200 C48.205,47.044 48.785,48.877 48.018,50.284 L40.846,63.324 C40.034,65.529 38.426,67.406 36.283,68.659 L36.270,69.980 C36.266,70.443 35.881,70.868 35.439,70.810 C34.985,70.806 34.621,70.426 34.625,69.963 L34.644,68.150 C34.647,67.840 34.818,67.557 35.088,67.414 C37.104,66.349 38.610,64.668 39.325,62.681 C39.340,62.640 39.358,62.599 39.380,62.560 L46.582,49.466 C46.908,48.867 46.613,48.058 45.921,47.664 C45.553,47.453 45.128,47.395 44.750,47.501 C44.538,47.562 44.248,47.703 44.070,48.029 L41.309,53.050 C41.127,53.382 40.747,53.550 40.385,53.451 C40.023,53.355 39.771,53.023 39.769,52.642 L39.730,32.801 C39.736,32.207 38.851,31.603 37.976,31.592 C37.227,31.614 36.429,32.213 36.420,32.886 L36.244,48.487 C36.239,48.947 35.872,49.316 35.422,49.316 C35.419,49.316 35.416,49.316 35.414,49.316 C34.960,49.311 34.595,48.932 34.600,48.469 L34.666,41.921 C34.674,41.293 33.776,40.711 32.784,40.698 C32.774,40.698 32.764,40.698 32.756,40.698 C32.187,40.698 31.611,40.921 31.247,41.283 C31.095,41.434 30.914,41.675 30.911,41.967 L30.913,48.411 C30.913,48.872 30.548,49.247 30.095,49.250 C30.094,49.250 30.092,49.250 30.091,49.250 C29.640,49.250 29.274,48.879 29.268,48.420 L29.215,43.294 C29.222,42.687 28.415,42.021 27.245,42.005 C26.123,41.996 25.292,43.012 25.283,43.680 L25.314,44.892 C25.319,44.967 25.322,45.044 25.320,45.120 L25.404,48.374 C25.416,48.837 25.057,49.222 24.603,49.234 C24.596,49.234 24.588,49.234 24.582,49.234 C24.137,49.234 23.771,48.873 23.759,48.417 L23.673,45.008 C23.655,44.786 23.583,44.624 23.452,44.496 C23.257,44.307 22.938,44.200 22.603,44.226 C21.972,44.262 21.296,44.597 21.287,45.425 L21.680,60.205 C21.705,62.382 22.470,64.400 23.832,65.900 C23.976,66.059 24.055,66.269 24.050,66.486 L23.980,70.187 C23.971,70.644 23.604,71.009 23.157,71.009 C23.152,71.009 23.147,71.009 23.141,71.009 C22.687,71.000 22.327,70.617 22.335,70.154 L22.399,66.782 C20.901,65.009 20.065,62.699 20.035,60.238 L19.642,45.438 C19.661,43.822 20.839,42.647 22.508,42.550 Z" class="cls-1"/>
</svg>
