<svg xmlns="http://www.w3.org/2000/svg" xmlns:xlink="http://www.w3.org/1999/xlink" preserveAspectRatio="xMidYMid" width="111" height="91" viewBox="0 0 111 91">
  <defs>
    <style>
      .cls-1 {
        fill: #fff;
        fill-rule: evenodd;
      }
    </style>
  </defs>
  <path d="M106.880,85.587 L105.305,85.587 L105.305,87.550 C105.305,88.901 104.193,90.000 102.827,90.000 L98.125,90.000 C96.759,90.000 95.647,88.901 95.647,87.550 L95.647,85.587 L73.352,85.587 L73.352,87.550 C73.352,88.901 72.240,90.000 70.874,90.000 L66.172,90.000 C64.806,90.000 63.694,88.901 63.694,87.550 L63.694,85.587 L62.119,85.587 C59.847,85.587 57.999,83.760 57.999,81.514 L57.999,4.073 C57.999,1.827 59.847,0.000 62.119,0.000 L106.880,0.000 C109.152,0.000 111.000,1.827 111.000,4.073 L111.000,81.514 C111.000,83.760 109.152,85.587 106.880,85.587 ZM97.231,87.550 C97.231,88.037 97.632,88.434 98.125,88.434 L102.827,88.434 C103.320,88.434 103.720,88.037 103.720,87.550 L103.720,85.587 L97.231,85.587 L97.231,87.550 ZM65.278,87.550 C65.278,88.037 65.679,88.434 66.172,88.434 L70.874,88.434 C71.367,88.434 71.767,88.037 71.767,87.550 L71.767,85.587 L65.278,85.587 L65.278,87.550 ZM109.416,4.073 C109.416,2.691 108.278,1.567 106.880,1.567 L62.119,1.567 C60.721,1.567 59.583,2.691 59.583,4.073 L59.583,29.857 L109.416,29.857 L109.416,4.073 ZM109.416,31.423 L59.583,31.423 L59.583,81.514 C59.583,82.896 60.721,84.020 62.119,84.020 L64.170,84.020 L72.876,84.020 L96.123,84.020 L104.829,84.020 L106.880,84.020 C108.278,84.020 109.416,82.896 109.416,81.514 L109.416,31.423 ZM66.872,51.179 C66.435,51.179 66.080,50.828 66.080,50.395 L66.080,36.786 C66.080,36.354 66.435,36.003 66.872,36.003 C67.310,36.003 67.665,36.354 67.665,36.786 L67.665,50.395 C67.665,50.828 67.310,51.179 66.872,51.179 ZM66.872,10.102 C67.310,10.102 67.665,10.452 67.665,10.885 L67.665,24.494 C67.665,24.927 67.310,25.277 66.872,25.277 C66.435,25.277 66.080,24.927 66.080,24.494 L66.080,10.885 C66.080,10.452 66.435,10.102 66.872,10.102 ZM45.838,87.375 L44.302,87.375 L44.302,88.720 C44.302,89.977 43.304,91.000 42.077,91.000 L37.567,91.000 C36.340,91.000 35.342,89.977 35.342,88.720 L35.342,87.375 L13.654,87.375 L13.654,88.720 C13.654,89.977 12.656,91.000 11.429,91.000 L6.919,91.000 C5.693,91.000 4.695,89.977 4.695,88.720 L4.695,87.375 L3.159,87.375 C1.416,87.375 -0.003,85.921 -0.003,84.134 L-0.003,58.241 C-0.003,56.454 1.416,55.000 3.159,55.000 L45.838,55.000 C47.581,55.000 48.999,56.454 48.999,58.241 L48.999,84.134 C48.999,85.921 47.581,87.375 45.838,87.375 ZM36.558,88.720 C36.558,89.290 37.011,89.754 37.567,89.754 L42.077,89.754 C42.633,89.754 43.086,89.290 43.086,88.720 L43.086,87.375 L36.558,87.375 L36.558,88.720 ZM5.910,88.720 C5.910,89.290 6.363,89.754 6.919,89.754 L11.429,89.754 C11.986,89.754 12.438,89.290 12.438,88.720 L12.438,87.375 L5.910,87.375 L5.910,88.720 ZM47.783,58.241 C47.783,57.141 46.910,56.246 45.838,56.246 L3.159,56.246 C2.086,56.246 1.213,57.141 1.213,58.241 L1.213,84.134 C1.213,85.234 2.086,86.128 3.159,86.128 L4.695,86.128 L13.654,86.128 L35.342,86.128 L44.302,86.128 L45.838,86.128 C46.910,86.128 47.783,85.234 47.783,84.134 L47.783,58.241 ZM42.317,65.475 C40.747,65.475 39.469,64.166 39.469,62.556 C39.469,60.946 40.747,59.637 42.317,59.637 C43.887,59.637 45.165,60.946 45.165,62.556 C45.165,64.166 43.887,65.475 42.317,65.475 ZM42.317,60.883 C41.417,60.883 40.685,61.633 40.685,62.556 C40.685,63.478 41.417,64.229 42.317,64.229 C43.217,64.229 43.949,63.478 43.949,62.556 C43.949,61.633 43.217,60.883 42.317,60.883 ZM34.526,83.257 L6.428,83.257 C5.163,83.257 4.134,82.202 4.134,80.905 L4.134,61.470 C4.134,60.173 5.163,59.118 6.428,59.118 L34.526,59.118 C35.791,59.118 36.820,60.173 36.820,61.470 L36.820,80.905 C36.820,82.202 35.791,83.257 34.526,83.257 ZM35.605,61.470 C35.605,60.860 35.121,60.364 34.526,60.364 L6.428,60.364 C5.833,60.364 5.350,60.860 5.350,61.470 L5.350,80.905 C5.350,81.515 5.833,82.011 6.428,82.011 L34.526,82.011 C35.121,82.011 35.605,81.515 35.605,80.905 L35.605,61.470 ZM42.317,69.331 C43.544,69.331 44.542,70.354 44.542,71.611 C44.542,72.869 43.544,73.892 42.317,73.892 C41.090,73.892 40.092,72.869 40.092,71.611 C40.092,70.354 41.090,69.331 42.317,69.331 ZM42.317,72.646 C42.873,72.646 43.326,72.182 43.326,71.611 C43.326,71.041 42.873,70.577 42.317,70.577 C41.761,70.577 41.308,71.041 41.308,71.611 C41.308,72.182 41.761,72.646 42.317,72.646 ZM42.317,77.341 C43.544,77.341 44.542,78.365 44.542,79.622 C44.542,80.880 43.544,81.903 42.317,81.903 C41.090,81.903 40.092,80.880 40.092,79.622 C40.092,78.365 41.090,77.341 42.317,77.341 ZM42.317,80.656 C42.873,80.656 43.326,80.192 43.326,79.622 C43.326,79.052 42.873,78.588 42.317,78.588 C41.761,78.588 41.308,79.052 41.308,79.622 C41.308,80.192 41.761,80.656 42.317,80.656 Z" class="cls-1"/>
</svg>
