<svg xmlns="http://www.w3.org/2000/svg" xmlns:xlink="http://www.w3.org/1999/xlink" preserveAspectRatio="xMidYMid" width="17" height="17" viewBox="0 0 17 17">
  <defs>
    <style>
      .cls-1 {
        fill: #fff;
        fill-rule: evenodd;
      }
    </style>
  </defs>
  <path d="M13.714,-0.001 L3.285,-0.001 C1.473,-0.001 -0.001,1.472 -0.001,3.284 L-0.001,6.754 L-0.001,13.714 C-0.001,15.526 1.473,17.000 3.285,17.000 L13.714,17.000 C15.526,17.000 17.000,15.526 17.000,13.714 L17.000,6.754 L17.000,3.284 C17.000,1.472 15.526,-0.001 13.714,-0.001 ZM14.657,1.958 L15.033,1.957 L15.033,2.331 L15.033,4.839 L12.160,4.848 L12.151,1.966 L14.657,1.958 ZM6.074,6.754 C6.618,6.001 7.501,5.507 8.500,5.507 C9.498,5.507 10.382,6.001 10.926,6.754 C11.281,7.246 11.493,7.847 11.493,8.499 C11.493,10.149 10.150,11.491 8.500,11.491 C6.850,11.491 5.508,10.149 5.508,8.499 C5.508,7.847 5.720,7.246 6.074,6.754 ZM15.344,13.714 C15.344,14.613 14.614,15.343 13.714,15.343 L3.285,15.343 C2.386,15.343 1.656,14.613 1.656,13.714 L1.656,6.754 L4.194,6.754 C3.974,7.294 3.851,7.882 3.851,8.499 C3.851,11.062 5.936,13.148 8.500,13.148 C11.063,13.148 13.148,11.062 13.148,8.499 C13.148,7.882 13.024,7.294 12.806,6.754 L15.344,6.754 L15.344,13.714 Z" class="cls-1"/>
</svg>
