<svg xmlns="http://www.w3.org/2000/svg" xmlns:xlink="http://www.w3.org/1999/xlink" preserveAspectRatio="xMidYMid" width="128.906" height="61.313" viewBox="0 0 128.906 61.313">
  <defs>
    <style>
      .cls-1 {
        fill: #9027b0;
        fill-rule: evenodd;
      }
    </style>
  </defs>
  <path d="M128.685,39.700 C125.220,44.710 122.182,47.244 119.643,47.244 C119.503,47.244 119.365,47.237 119.228,47.222 C117.026,46.973 116.134,44.880 116.040,44.643 C115.994,44.556 115.947,44.453 115.901,44.341 C114.249,47.426 112.203,50.300 109.786,52.878 C112.105,52.864 115.275,54.155 119.265,56.749 C119.414,56.809 119.542,56.917 119.627,57.057 C119.721,57.213 119.754,57.395 119.724,57.570 C119.723,57.579 119.721,57.587 119.720,57.596 C119.669,57.866 119.477,58.081 119.225,58.167 C115.365,60.266 112.283,61.319 110.012,61.319 C108.953,61.319 108.070,61.090 107.369,60.631 C105.517,59.420 105.664,57.145 105.687,56.890 C105.686,56.863 105.689,56.775 105.697,56.664 C104.489,57.643 103.225,58.569 101.891,59.418 C101.766,59.498 101.626,59.536 101.488,59.536 C101.239,59.536 100.996,59.413 100.852,59.189 C100.628,58.838 100.732,58.374 101.082,58.151 C102.310,57.369 103.473,56.517 104.591,55.621 C104.440,55.605 104.331,55.587 104.287,55.578 C104.105,55.566 101.843,55.298 100.986,53.260 C99.966,50.832 101.503,47.070 105.553,42.076 C105.658,41.878 105.848,41.733 106.077,41.689 C106.321,41.641 106.558,41.716 106.731,41.876 C106.840,41.971 106.920,42.097 106.958,42.241 C108.562,46.085 109.274,49.110 109.141,51.336 C111.361,48.882 113.245,46.169 114.763,43.261 C114.208,43.419 113.712,43.457 113.447,43.457 C113.332,43.457 113.260,43.452 113.244,43.451 C113.237,43.455 110.848,43.557 109.689,41.604 C108.343,39.333 109.370,35.395 112.742,29.898 C112.821,29.690 112.990,29.522 113.211,29.449 C113.291,29.422 113.364,29.408 113.455,29.411 C113.551,29.420 113.627,29.424 113.711,29.454 C113.933,29.531 114.100,29.704 114.174,29.917 C115.839,32.787 116.872,35.214 117.307,37.209 C118.534,33.394 119.184,29.358 119.184,25.216 C119.184,25.073 119.167,24.932 119.166,24.790 C118.656,25.348 118.126,25.656 118.015,25.715 C117.564,26.030 116.671,26.424 115.659,26.424 C115.126,26.424 114.560,26.315 114.006,26.027 C111.666,24.807 110.453,20.923 110.401,14.482 C110.355,14.251 110.420,14.006 110.585,13.826 C110.651,13.755 110.727,13.699 110.810,13.659 C110.883,13.622 110.963,13.596 111.047,13.584 C111.254,13.554 111.457,13.612 111.616,13.736 C114.917,15.485 117.250,17.182 118.646,18.813 C118.300,16.727 117.773,14.678 117.090,12.671 C116.685,12.823 116.147,12.964 115.546,12.964 C114.998,12.964 114.398,12.847 113.802,12.512 C111.507,11.225 110.398,7.321 110.505,0.907 C110.448,0.617 110.568,0.309 110.830,0.137 C110.870,0.111 110.911,0.089 110.953,0.071 C111.033,0.036 111.120,0.015 111.209,0.008 C111.404,-0.003 111.597,0.060 111.744,0.183 C117.352,3.334 120.170,6.265 120.119,8.898 C120.088,10.447 119.103,11.431 118.433,11.929 C119.081,13.792 119.590,15.692 119.957,17.624 C120.843,15.798 122.393,13.695 124.642,11.313 C124.783,11.095 125.007,10.967 125.303,10.969 C125.352,10.971 125.400,10.977 125.446,10.988 C125.564,11.013 125.676,11.066 125.772,11.147 C125.920,11.270 126.013,11.443 126.037,11.628 C128.058,17.739 128.159,21.804 126.336,23.711 C125.505,24.580 124.412,24.837 123.510,24.837 C123.058,24.837 122.653,24.772 122.355,24.688 C121.923,24.622 121.257,24.391 120.634,23.946 C120.647,24.370 120.689,24.790 120.689,25.216 C120.689,30.028 119.831,34.697 118.246,39.067 C120.331,38.143 123.606,37.907 128.083,38.394 C128.345,38.361 128.611,38.480 128.771,38.707 C128.814,38.766 128.846,38.829 128.868,38.895 C128.896,38.968 128.913,39.046 128.915,39.128 C128.924,39.347 128.837,39.554 128.685,39.700 ZM106.013,43.920 C101.911,49.231 101.952,51.674 102.374,52.678 C102.899,53.930 104.435,54.087 104.500,54.093 C104.640,54.116 106.162,54.399 107.020,53.345 C107.709,52.501 108.441,50.169 106.013,43.920 ZM108.377,54.689 C107.185,55.341 107.188,56.883 107.188,56.948 C107.180,57.089 107.056,58.630 108.193,59.373 C109.105,59.969 111.503,60.454 117.473,57.393 C113.609,55.010 111.247,54.374 109.828,54.374 C109.149,54.374 108.685,54.520 108.377,54.689 ZM118.614,8.869 C118.635,7.781 117.771,5.494 112.004,2.069 C112.051,8.769 113.589,10.668 114.538,11.202 C115.721,11.863 117.040,11.042 117.095,11.007 C117.217,10.941 118.587,10.228 118.614,8.869 ZM111.928,15.618 C112.144,22.331 113.734,24.188 114.701,24.693 C115.910,25.325 117.180,24.470 117.234,24.433 C117.366,24.358 118.711,23.625 118.707,22.262 C118.705,21.173 117.789,18.906 111.928,15.618 ZM120.671,21.659 C121.107,22.950 122.664,23.220 122.680,23.223 C122.827,23.260 124.307,23.660 125.249,22.672 C126.002,21.883 126.911,19.614 124.955,13.192 C120.462,18.186 120.323,20.626 120.671,21.659 ZM113.436,31.670 C110.062,37.477 110.427,39.893 110.980,40.832 C111.668,42.003 113.251,41.946 113.264,41.951 C113.377,41.954 114.946,42.048 115.667,40.889 C116.242,39.963 116.667,37.557 113.436,31.670 ZM123.852,39.643 C119.459,39.643 117.956,40.718 117.442,41.470 C116.673,42.596 117.374,43.957 117.405,44.014 C117.464,44.149 118.044,45.576 119.397,45.728 C120.488,45.849 122.841,45.200 126.786,39.778 C125.687,39.685 124.714,39.643 123.852,39.643 ZM33.938,9.467 C33.938,7.481 35.547,5.969 37.440,5.969 L92.519,5.969 C94.412,5.969 96.020,7.481 95.926,9.372 L95.926,57.969 L33.938,57.969 L33.938,9.467 ZM35.453,56.551 L35.453,56.645 L94.601,56.645 L94.601,36.318 L94.601,34.900 L94.601,14.667 L35.453,14.667 L35.453,56.551 ZM35.453,13.343 L94.506,13.343 L94.506,9.467 C94.506,8.333 93.655,7.387 92.519,7.387 L37.440,7.387 C36.304,7.387 35.453,8.333 35.453,9.372 L35.453,13.343 ZM76.430,11.074 L39.995,11.074 L39.995,9.656 L76.430,9.656 L76.430,11.074 ZM82.298,11.074 L80.879,11.074 L80.879,9.656 L82.298,9.656 L82.298,11.074 ZM85.894,11.074 L84.475,11.074 L84.475,9.656 L85.894,9.656 L85.894,11.074 ZM89.490,11.074 L88.071,11.074 L88.071,9.656 L89.490,9.656 L89.490,11.074 ZM68.469,37.469 L88.844,37.469 L88.844,49.312 L68.469,49.312 L68.469,37.469 ZM68.469,32.750 L88.844,32.750 L88.844,35.125 L68.469,35.125 L68.469,32.750 ZM68.469,28.031 L88.844,28.031 L88.844,30.406 L68.469,30.406 L68.469,28.031 ZM68.469,23.312 L88.844,23.312 L88.844,25.656 L68.469,25.656 L68.469,23.312 ZM43.469,23.469 L63.844,23.469 L63.844,49.312 L43.469,49.312 L43.469,23.469 ZM24.578,55.589 C24.550,55.595 24.465,55.610 24.347,55.623 C25.464,56.518 26.626,57.370 27.852,58.151 C28.203,58.374 28.306,58.838 28.083,59.189 C27.939,59.413 27.696,59.536 27.447,59.536 C27.309,59.536 27.169,59.498 27.043,59.418 C25.710,58.569 24.446,57.643 23.238,56.664 C23.249,56.809 23.253,56.926 23.253,56.969 C23.272,57.145 23.419,59.420 21.569,60.631 C20.866,61.090 19.983,61.319 18.924,61.319 C16.646,61.319 13.553,60.260 9.675,58.148 C9.582,58.109 9.497,58.052 9.426,57.980 C9.414,57.968 9.403,57.957 9.392,57.944 C9.202,57.730 9.149,57.427 9.258,57.161 C9.335,56.972 9.485,56.825 9.669,56.750 C13.660,54.155 16.832,52.865 19.150,52.879 C16.730,50.297 14.683,47.419 13.030,44.330 C12.957,44.528 12.892,44.662 12.867,44.711 C12.804,44.880 11.913,46.973 9.710,47.222 C9.573,47.237 9.435,47.244 9.295,47.244 C6.747,47.244 3.694,44.691 0.212,39.642 C0.183,39.606 0.155,39.567 0.132,39.526 C-0.069,39.254 -0.042,38.908 0.172,38.641 C0.339,38.434 0.613,38.353 0.871,38.392 C5.341,37.908 8.610,38.145 10.692,39.068 C9.107,34.698 8.249,30.029 8.249,25.216 C8.249,24.788 8.291,24.366 8.304,23.940 C7.669,24.392 6.977,24.630 6.498,24.707 C6.429,24.728 5.992,24.842 5.394,24.842 C4.585,24.842 3.481,24.634 2.599,23.709 C0.773,21.797 0.881,17.715 2.918,11.578 C2.948,11.436 3.018,11.303 3.123,11.200 C3.293,11.034 3.530,10.951 3.759,10.981 C3.977,11.008 4.172,11.128 4.291,11.308 C6.543,13.692 8.095,15.796 8.981,17.624 C9.347,15.694 9.856,13.794 10.503,11.932 C9.854,11.453 8.851,10.468 8.820,8.903 C8.765,6.258 11.604,3.313 17.259,0.147 C17.298,0.121 17.340,0.099 17.383,0.081 C17.628,-0.032 17.927,-0.004 18.152,0.169 C18.381,0.343 18.484,0.627 18.435,0.898 C18.542,7.317 17.433,11.224 15.137,12.512 C14.543,12.845 13.946,12.963 13.397,12.963 C12.799,12.963 12.261,12.822 11.848,12.667 C11.165,14.675 10.638,16.725 10.292,18.812 C11.694,17.173 14.042,15.469 17.369,13.711 C17.496,13.628 17.643,13.580 17.802,13.588 C18.038,13.596 18.260,13.706 18.396,13.894 C18.524,14.064 18.574,14.278 18.534,14.483 C18.483,20.933 17.268,24.818 14.920,26.032 C14.361,26.321 13.805,26.426 13.292,26.426 C11.954,26.426 10.905,25.710 10.846,25.668 C10.773,25.633 10.269,25.339 9.772,24.794 C9.771,24.935 9.754,25.074 9.754,25.216 C9.754,29.356 10.404,33.391 11.629,37.205 C12.068,35.197 13.112,32.752 14.796,29.860 C14.809,29.834 14.822,29.809 14.837,29.784 C14.970,29.477 15.277,29.331 15.612,29.379 C15.892,29.418 16.110,29.636 16.199,29.902 C19.569,35.398 20.595,39.334 19.249,41.604 C18.091,43.556 15.699,43.459 15.598,43.452 C15.597,43.453 15.539,43.458 15.439,43.458 C15.202,43.458 14.721,43.419 14.176,43.263 C15.693,46.171 17.577,48.884 19.797,51.337 C19.664,49.106 20.379,46.070 21.993,42.210 C22.020,42.125 22.062,42.046 22.117,41.975 C22.289,41.750 22.578,41.638 22.857,41.689 C23.085,41.732 23.276,41.876 23.382,42.072 C27.434,47.066 28.971,50.829 27.952,53.257 C27.097,55.296 24.834,55.565 24.578,55.589 ZM3.983,13.192 C2.027,19.614 2.935,21.884 3.689,22.672 C4.628,23.659 6.112,23.259 6.174,23.241 C6.322,23.212 7.831,22.950 8.266,21.659 C8.614,20.626 8.476,18.185 3.983,13.192 ZM14.400,11.201 C15.350,10.668 16.889,8.768 16.937,2.068 C11.163,5.495 10.301,7.783 10.323,8.872 C10.352,10.233 11.721,10.940 11.778,10.970 C11.898,11.042 13.219,11.863 14.400,11.201 ZM11.630,24.388 C11.720,24.444 13.027,25.322 14.236,24.693 C15.203,24.188 16.793,22.332 17.007,15.619 C11.147,18.906 10.232,21.172 10.230,22.262 C10.227,23.625 11.573,24.358 11.630,24.388 ZM11.491,41.464 C10.873,40.567 8.840,39.210 2.151,39.778 C6.096,45.200 8.450,45.854 9.542,45.728 C10.895,45.576 11.475,44.149 11.499,44.089 C11.561,43.962 12.260,42.582 11.491,41.464 ZM15.581,41.952 C15.591,41.955 15.607,41.953 15.636,41.953 C15.942,41.953 17.323,41.911 17.957,40.832 C18.510,39.893 18.875,37.477 15.501,31.669 C12.269,37.556 12.694,39.963 13.269,40.889 C13.990,42.046 15.565,41.951 15.581,41.952 ZM11.462,57.393 C17.436,60.455 19.831,59.970 20.744,59.373 C21.880,58.630 21.757,57.089 21.751,57.023 C21.749,56.879 21.760,55.349 20.565,54.691 C19.611,54.164 17.183,53.867 11.462,57.393 ZM22.925,43.918 C20.498,50.166 21.229,52.499 21.916,53.344 C22.773,54.396 24.302,54.116 24.365,54.103 C24.502,54.087 26.039,53.928 26.564,52.677 C26.985,51.672 27.026,49.228 22.925,43.918 Z" class="cls-1"/>
</svg>
