<svg xmlns="http://www.w3.org/2000/svg" xmlns:xlink="http://www.w3.org/1999/xlink" preserveAspectRatio="xMidYMid" width="71" height="66" viewBox="0 0 71 66">
  <defs>
    <style>
      .cls-1 {
        fill: #fff;
        fill-rule: evenodd;
      }
    </style>
  </defs>
  <path d="M70.820,27.605 C70.500,28.033 69.891,28.118 69.466,27.797 L64.535,24.075 L64.535,64.623 C64.543,64.674 64.565,64.721 64.565,64.775 C64.565,64.828 64.543,64.875 64.535,64.926 L64.535,65.033 C64.535,65.569 64.101,66.003 63.567,66.003 C63.317,66.003 63.094,65.902 62.922,65.745 L7.453,65.745 C6.919,65.745 6.485,65.310 6.485,64.775 L6.485,24.075 L1.554,27.797 C1.381,27.929 1.176,27.992 0.974,27.992 C0.680,27.992 0.390,27.858 0.200,27.605 C-0.121,27.176 -0.035,26.568 0.392,26.246 L34.929,0.179 C35.272,-0.080 35.747,-0.080 36.091,0.179 L70.629,26.246 C71.056,26.568 71.141,27.176 70.820,27.605 ZM62.600,22.615 L35.510,2.169 L8.420,22.615 L8.420,63.804 L62.600,63.804 L62.600,22.615 ZM34.929,8.922 C35.272,8.662 35.747,8.662 36.091,8.922 L49.287,18.881 C49.714,19.203 49.800,19.811 49.479,20.240 C49.289,20.493 48.999,20.627 48.705,20.627 C48.502,20.627 48.298,20.563 48.125,20.432 L35.510,10.911 L22.896,20.432 C22.470,20.753 21.862,20.668 21.542,20.240 C21.220,19.811 21.306,19.203 21.733,18.881 L34.929,8.922 ZM46.133,51.603 L24.888,51.603 L24.888,30.292 L46.133,30.292 L46.133,51.603 ZM34.543,32.232 L26.823,32.232 L26.823,40.113 L34.543,40.113 L34.543,32.232 ZM44.198,32.232 L36.477,32.232 L36.477,40.113 L44.198,40.113 L44.198,32.232 ZM44.198,42.053 L26.823,42.053 L26.823,45.790 L44.198,45.790 L44.198,42.053 Z" class="cls-1"/>
</svg>
