<svg xmlns="http://www.w3.org/2000/svg" xmlns:xlink="http://www.w3.org/1999/xlink" preserveAspectRatio="xMidYMid" width="95" height="73" viewBox="0 0 95 73">
  <defs>
    <style>
      .cls-1 {
        fill: #9027b0;
        fill-rule: evenodd;
      }
    </style>
  </defs>
  <path d="M94.868,30.586 C94.866,31.001 94.528,31.337 94.114,31.335 L69.570,31.229 L61.956,39.571 C61.810,39.731 61.606,39.817 61.398,39.816 C61.307,39.815 61.216,39.798 61.128,39.764 C60.839,39.651 60.649,39.370 60.651,39.060 L60.684,31.191 L55.040,31.167 C54.626,31.165 54.291,30.826 54.293,30.411 L54.420,0.747 C54.422,0.332 54.759,-0.004 55.174,-0.002 L94.248,0.166 C94.662,0.168 94.997,0.507 94.995,0.922 L94.868,30.586 ZM55.919,1.507 L55.798,29.664 L61.442,29.689 C61.857,29.690 62.191,30.029 62.190,30.445 L62.161,37.116 L68.687,29.967 C68.830,29.811 69.032,29.721 69.244,29.722 L93.369,29.826 L93.490,1.669 L55.919,1.507 ZM88.264,17.265 L61.229,17.148 C60.814,17.146 60.479,16.808 60.481,16.392 C60.483,15.976 60.821,15.641 61.235,15.642 L88.271,15.759 C88.685,15.761 89.020,16.099 89.018,16.515 C89.016,16.931 88.679,17.266 88.264,17.265 ZM80.288,9.201 L70.275,9.157 C69.860,9.155 69.525,8.817 69.527,8.401 C69.529,7.986 69.867,7.650 70.281,7.652 L80.295,7.695 C80.709,7.697 81.044,8.035 81.042,8.451 C81.040,8.867 80.703,9.202 80.288,9.201 ZM61.205,22.668 L88.240,22.785 C88.655,22.787 88.990,23.125 88.988,23.541 C88.986,23.957 88.649,24.292 88.234,24.291 L61.199,24.174 C60.784,24.172 60.449,23.834 60.451,23.418 C60.453,23.002 60.790,22.667 61.205,22.668 ZM51.870,29.541 L25.847,36.911 L25.770,54.874 L60.871,65.355 L60.968,42.825 C60.970,42.409 61.307,42.074 61.722,42.076 C62.137,42.077 62.472,42.416 62.470,42.832 L62.369,66.366 C62.368,66.436 62.340,66.499 62.321,66.565 C62.345,66.640 62.367,66.716 62.367,66.799 C62.365,67.200 62.927,67.648 63.737,67.652 C64.550,67.655 65.118,67.212 65.119,66.811 L65.226,38.494 C65.227,38.079 65.564,37.743 65.980,37.745 C66.394,37.747 66.729,38.085 66.728,38.501 L66.622,66.817 C66.616,68.137 65.346,69.164 63.731,69.157 C62.175,69.151 60.960,68.181 60.881,66.928 L25.763,56.443 L25.759,57.395 C25.758,57.810 25.420,58.146 25.005,58.144 L4.979,58.058 C4.564,58.056 4.229,57.718 4.231,57.302 L4.239,55.527 C4.238,55.526 4.237,55.526 4.236,55.526 L0.424,53.675 C0.165,53.549 -0.000,53.284 0.001,52.994 L0.064,38.345 C0.065,38.054 0.233,37.791 0.494,37.667 L4.321,35.854 C4.322,35.853 4.323,35.854 4.323,35.853 L4.331,34.100 C4.333,33.684 4.671,33.349 5.085,33.351 L25.111,33.437 C25.526,33.439 25.861,33.777 25.859,34.193 L25.854,35.345 L51.462,28.093 C51.861,27.975 52.275,28.212 52.389,28.612 C52.501,29.013 52.270,29.428 51.870,29.541 ZM1.564,38.826 L1.505,52.526 L4.246,53.857 L4.316,37.521 L1.564,38.826 ZM5.830,34.859 L5.736,56.556 L24.261,56.635 L24.354,34.939 L5.830,34.859 ZM13.196,59.482 C13.610,59.484 13.945,59.823 13.943,60.238 L13.895,71.457 L18.642,71.478 L18.690,60.259 C18.692,59.843 19.029,59.508 19.444,59.509 C19.859,59.511 20.194,59.850 20.192,60.265 L20.140,72.237 C20.139,72.653 19.801,72.989 19.386,72.987 L13.138,72.960 C12.723,72.958 12.388,72.619 12.390,72.204 L12.442,60.232 C12.443,59.816 12.781,59.481 13.196,59.482 ZM69.988,52.176 L70.039,40.269 L68.511,39.411 C68.149,39.208 68.020,38.749 68.222,38.387 C68.426,38.024 68.882,37.894 69.244,38.097 L71.158,39.172 C71.397,39.306 71.544,39.559 71.543,39.832 L71.488,52.625 C71.487,52.899 71.338,53.150 71.099,53.281 L69.175,54.342 C69.060,54.406 68.934,54.436 68.811,54.435 C68.547,54.434 68.292,54.294 68.156,54.045 C67.956,53.681 68.088,53.223 68.452,53.023 L69.988,52.176 Z" class="cls-1"/>
</svg>
