<svg xmlns="http://www.w3.org/2000/svg" xmlns:xlink="http://www.w3.org/1999/xlink" preserveAspectRatio="xMidYMid" width="17.469" height="13.969" viewBox="0 0 17.469 13.969">
  <defs>
    <style>
      .cls-1 {
        fill: #fff;
        fill-rule: evenodd;
      }
    </style>
  </defs>
  <path d="M17.479,1.649 C16.837,1.929 16.145,2.119 15.421,2.204 C16.161,1.768 16.729,1.076 16.996,0.253 C16.303,0.657 15.537,0.950 14.720,1.108 C14.067,0.422 13.135,-0.006 12.104,-0.006 C10.125,-0.006 8.521,1.574 8.521,3.523 C8.521,3.800 8.551,4.069 8.613,4.327 C5.634,4.179 2.994,2.775 1.225,0.639 C0.917,1.162 0.740,1.768 0.740,2.415 C0.740,3.638 1.373,4.718 2.335,5.352 C1.747,5.334 1.194,5.174 0.710,4.911 L0.710,4.955 C0.710,6.665 1.946,8.092 3.586,8.415 C3.285,8.498 2.969,8.540 2.642,8.540 C2.411,8.540 2.185,8.518 1.968,8.477 C2.423,9.879 3.747,10.900 5.315,10.927 C4.089,11.874 2.543,12.438 0.864,12.438 C0.575,12.438 0.289,12.422 0.009,12.389 C1.595,13.390 3.479,13.974 5.503,13.974 C12.097,13.974 15.701,8.597 15.701,3.933 C15.701,3.779 15.697,3.626 15.691,3.476 C16.392,2.978 17.000,2.356 17.479,1.649 " class="cls-1"/>
</svg>
