<svg xmlns="http://www.w3.org/2000/svg" xmlns:xlink="http://www.w3.org/1999/xlink" preserveAspectRatio="xMidYMid" width="17" height="14.938" viewBox="0 0 17 14.938">
  <defs>
    <style>
      .cls-1 {
        fill: #fff;
        fill-rule: evenodd;
      }
    </style>
  </defs>
  <path d="M11.978,1.546 L11.978,4.881 C11.901,4.978 11.808,5.057 11.713,5.119 C11.610,5.181 11.533,5.216 11.464,5.216 C11.388,5.216 11.327,5.190 11.293,5.145 C11.250,5.092 11.233,5.022 11.233,4.916 L11.233,1.546 L10.358,1.546 L10.358,5.216 C10.358,5.481 10.410,5.675 10.513,5.807 C10.615,5.939 10.771,6.001 10.967,6.001 C11.139,6.001 11.301,5.957 11.481,5.869 C11.652,5.772 11.816,5.640 11.978,5.454 L11.978,5.939 L12.853,5.939 L12.853,1.546 L11.978,1.546 ZM9.313,1.759 C9.081,1.538 8.782,1.432 8.423,1.432 C8.028,1.432 7.711,1.538 7.471,1.741 C7.239,1.944 7.120,2.208 7.120,2.553 L7.120,4.828 C7.120,5.208 7.239,5.498 7.462,5.719 C7.693,5.939 8.002,6.054 8.379,6.054 C8.773,6.054 9.091,5.948 9.313,5.727 C9.545,5.516 9.656,5.225 9.656,4.846 L9.656,2.579 C9.656,2.244 9.536,1.970 9.313,1.759 ZM8.765,4.916 C8.765,5.031 8.731,5.119 8.661,5.190 C8.593,5.261 8.499,5.295 8.379,5.295 C8.268,5.295 8.174,5.261 8.113,5.190 C8.054,5.128 8.019,5.031 8.019,4.916 L8.019,2.517 C8.019,2.421 8.054,2.341 8.122,2.288 C8.183,2.226 8.276,2.200 8.379,2.200 C8.491,2.200 8.585,2.226 8.661,2.288 C8.731,2.341 8.765,2.421 8.765,2.517 L8.765,4.916 ZM6.057,-0.015 L5.449,2.367 L5.380,2.367 L4.746,-0.015 L3.753,-0.015 L4.927,3.584 L4.927,5.939 L5.911,5.939 L5.911,3.470 L7.051,-0.015 L6.057,-0.015 ZM12.870,10.473 C12.921,10.544 12.946,10.667 12.946,10.826 L12.946,11.231 L12.269,11.231 L12.269,10.826 C12.269,10.667 12.286,10.544 12.347,10.473 C12.398,10.403 12.484,10.358 12.613,10.358 C12.732,10.358 12.818,10.403 12.870,10.473 ZM10.179,10.455 C10.128,10.384 10.042,10.349 9.939,10.349 C9.887,10.349 9.827,10.358 9.776,10.384 C9.724,10.411 9.665,10.455 9.614,10.509 L9.614,12.995 C9.673,13.057 9.742,13.111 9.802,13.137 C9.862,13.163 9.922,13.181 9.982,13.181 C10.085,13.181 10.153,13.155 10.195,13.092 C10.238,13.040 10.265,12.951 10.265,12.819 L10.265,10.756 C10.265,10.623 10.238,10.526 10.179,10.455 ZM10.179,10.455 C10.128,10.384 10.042,10.349 9.939,10.349 C9.887,10.349 9.827,10.358 9.776,10.384 C9.724,10.411 9.665,10.455 9.614,10.509 L9.614,12.995 C9.673,13.057 9.742,13.111 9.802,13.137 C9.862,13.163 9.922,13.181 9.982,13.181 C10.085,13.181 10.153,13.155 10.195,13.092 C10.238,13.040 10.265,12.951 10.265,12.819 L10.265,10.756 C10.265,10.623 10.238,10.526 10.179,10.455 ZM14.575,7.377 L2.425,7.377 C1.096,7.377 -0.001,8.506 -0.001,9.882 L-0.001,12.432 C-0.001,13.807 1.096,14.928 2.425,14.928 L14.575,14.928 C15.903,14.928 17.000,13.807 17.000,12.432 L17.000,9.882 C17.000,8.506 15.903,7.377 14.575,7.377 ZM5.698,9.132 L4.789,9.132 L4.789,13.754 L3.915,13.754 L3.915,9.132 L3.015,9.132 L3.015,8.348 L5.698,8.348 L5.698,9.132 ZM8.250,13.754 L7.471,13.754 L7.471,13.313 C7.334,13.480 7.180,13.604 7.026,13.684 C6.872,13.772 6.725,13.816 6.579,13.816 C6.400,13.816 6.263,13.754 6.168,13.630 C6.082,13.516 6.040,13.340 6.040,13.101 L6.040,9.758 L6.811,9.758 L6.811,12.828 C6.811,12.916 6.828,12.987 6.863,13.031 C6.889,13.075 6.948,13.092 7.018,13.092 C7.077,13.092 7.146,13.066 7.232,13.004 C7.326,12.951 7.403,12.881 7.471,12.792 L7.471,9.758 L8.250,9.758 L8.250,13.754 ZM11.061,12.925 C11.061,13.207 11.001,13.428 10.881,13.578 C10.762,13.727 10.581,13.807 10.351,13.807 C10.195,13.807 10.067,13.780 9.947,13.719 C9.827,13.657 9.717,13.569 9.614,13.446 L9.614,13.754 L8.834,13.754 L8.834,8.348 L9.614,8.348 L9.614,10.085 C9.717,9.971 9.827,9.874 9.947,9.811 C10.067,9.749 10.187,9.715 10.307,9.715 C10.547,9.715 10.736,9.803 10.864,9.971 C10.993,10.138 11.061,10.384 11.061,10.712 L11.061,12.925 ZM13.753,11.858 L12.269,11.858 L12.269,12.608 C12.269,12.819 12.286,12.961 12.339,13.040 C12.389,13.128 12.484,13.163 12.604,13.163 C12.732,13.163 12.818,13.128 12.870,13.057 C12.921,12.995 12.946,12.837 12.946,12.608 L12.946,12.422 L13.753,12.422 L13.753,12.625 C13.753,13.040 13.650,13.348 13.452,13.551 C13.264,13.763 12.972,13.860 12.587,13.860 C12.235,13.860 11.961,13.754 11.764,13.533 C11.567,13.313 11.464,13.013 11.464,12.625 L11.464,10.835 C11.464,10.491 11.576,10.208 11.799,9.988 C12.012,9.776 12.295,9.662 12.647,9.662 C12.998,9.662 13.273,9.768 13.460,9.971 C13.650,10.174 13.753,10.455 13.753,10.835 L13.753,11.858 ZM9.939,10.349 C9.887,10.349 9.827,10.358 9.776,10.384 C9.724,10.411 9.665,10.455 9.614,10.509 L9.614,12.995 C9.673,13.057 9.742,13.111 9.802,13.137 C9.862,13.163 9.922,13.181 9.982,13.181 C10.085,13.181 10.153,13.155 10.195,13.092 C10.238,13.040 10.265,12.951 10.265,12.819 L10.265,10.756 C10.265,10.623 10.238,10.526 10.179,10.455 C10.128,10.384 10.042,10.349 9.939,10.349 ZM10.179,10.455 C10.128,10.384 10.042,10.349 9.939,10.349 C9.887,10.349 9.827,10.358 9.776,10.384 C9.724,10.411 9.665,10.455 9.614,10.509 L9.614,12.995 C9.673,13.057 9.742,13.111 9.802,13.137 C9.862,13.163 9.922,13.181 9.982,13.181 C10.085,13.181 10.153,13.155 10.195,13.092 C10.238,13.040 10.265,12.951 10.265,12.819 L10.265,10.756 C10.265,10.623 10.238,10.526 10.179,10.455 ZM10.179,10.455 C10.128,10.384 10.042,10.349 9.939,10.349 C9.887,10.349 9.827,10.358 9.776,10.384 C9.724,10.411 9.665,10.455 9.614,10.509 L9.614,12.995 C9.673,13.057 9.742,13.111 9.802,13.137 C9.862,13.163 9.922,13.181 9.982,13.181 C10.085,13.181 10.153,13.155 10.195,13.092 C10.238,13.040 10.265,12.951 10.265,12.819 L10.265,10.756 C10.265,10.623 10.238,10.526 10.179,10.455 Z" class="cls-1"/>
</svg>
